<svg xmlns="http://www.w3.org/2000/svg" width="30" height="30"><path d="M27.42 28.82a.96.96 0 0 1-.9.61.98.98 0 0 1-.35 0L15 24.73l-11.19 4.7a.96.96 0 0 1-1.25-.54v-.02a.96.96 0 0 1 .56-1.37l9.35-3.85-9.35-3.86a.96.96 0 1 1 .7-1.8L15 22.65 26.19 18a.96.96 0 1 1 .7 1.79l-9.38 3.86 9.35 3.85a.96.96 0 0 1 .56 1.32zM23.68 8.66v.87c0 .4-.14.8-.39 1.14A34.18 34.18 0 0 1 19.82 14v2.24c0 .4-.24.76-.61.9l-4.17 1.68h-.14l-4.18-1.67a.96.96 0 0 1-.54-.91V14a33.88 33.88 0 0 1-3.51-3.33 1.93 1.93 0 0 1-.35-1.14v-.87A8.87 8.87 0 0 1 14.25.5h1.44a8.85 8.85 0 0 1 7.99 8.16zm-11.57-.44a1.93 1.93 0 1 0-3.86 0 1.93 1.93 0 0 0 3.86 0zM14.04 14a.96.96 0 0 0-1.93 0v.97a.96.96 0 0 0 1.93 0zm3.85 0a.96.96 0 0 0-1.93 0v.97a.96.96 0 0 0 1.93 0zm3.86-5.78a1.93 1.93 0 1 0-3.86 0 1.93 1.93 0 0 0 3.86 0z"/></svg>